<svg xmlns="http://www.w3.org/2000/svg" width="512" height="512" fill="none" viewBox="0 0 512 512">
  <g clip-path="url(#a)">
    <path fill="#63AD50" d="M37.6 4.2C28-2.3 15.2-1.1 7 7c-8.2 8.1-9.4 21-2.8 30.5l112 163.3-99.6 32.4C6.7 236.4 0 245.6 0 256s6.7 19.6 16.6 22.8l103.1 33.4-52.9 100.6c-4.9 9.3-3.2 20.7 4.3 28.1 7.5 7.4 18.8 9.2 28.1 4.3l100.6-52.9 33.4 103.1c3.2 9.9 12.4 16.6 22.8 16.6s19.6-6.7 22.8-16.6l33.4-103.1 100.6 52.9c9.3 4.9 20.7 3.2 28.1-4.3 7.4-7.5 9.2-18.8 4.3-28.1l-52.9-100.6 103.1-33.4c9.9-3.2 16.6-12.4 16.6-22.8s-6.7-19.6-16.6-22.8l-106.5-34.5 25.7-70.4a24 24 0 0 0-5.6-25.2 24 24 0 0 0-25.2-5.6l-70.4 25.7-34.6-106.6C275.6 6.7 266.4 0 256 0s-19.6 6.7-22.8 16.6l-32.3 99.6L37.6 4.2Z"/>
  </g>
  <defs>
    <clipPath id="a">
      <path fill="#fff" d="M0 0h512v512H0z"/>
    </clipPath>
  </defs>
</svg>
